<?xml version="1.0" encoding="UTF-8"?>
<svg width="42px" height="42px" viewBox="0 0 42 42" version="1.1" xmlns="http://www.w3.org/2000/svg" xmlns:xlink="http://www.w3.org/1999/xlink">
    <!-- Generator: Sketch 50.2 (55047) - http://www.bohemiancoding.com/sketch -->
    <title>Group 3</title>
    <desc>Created with Sketch.</desc>
    <defs>
        <polygon id="path-1" points="0 0 30 0 30 30 0 30"></polygon>
    </defs>
    <g id="1.-Landing-Page" stroke="none" stroke-width="1" fill="none" fill-rule="evenodd">
        <g id="Password-Modal" transform="translate(-144.000000, -20.000000)">
            <g id="Group-3" transform="translate(144.000000, 20.000000)">
                <circle id="Oval-2" fill-opacity="0.403730752" fill="#F0AB00" cx="21" cy="21" r="21"></circle>
                <g id="ic/lock_outline/grey600" transform="translate(6.000000, 6.000000)">
                    <g id="ic_lock_outline_24px">
                        <mask id="mask-2" fill="white">
                            <use xlink:href="#path-1"></use>
                        </mask>
                        <g id="a"></g>
                        <path d="M15,21.25 C16.375,21.25 17.5,20.125 17.5,18.75 C17.5,17.375 16.375,16.25 15,16.25 C13.625,16.25 12.5,17.375 12.5,18.75 C12.5,20.125 13.625,21.25 15,21.25 Z M22.5,10 L21.25,10 L21.25,7.5 C21.25,4.05 18.45,1.25 15,1.25 C11.55,1.25 8.75,4.05 8.75,7.5 L8.75,10 L7.5,10 C6.125,10 5,11.125 5,12.5 L5,25 C5,26.375 6.125,27.5 7.5,27.5 L22.5,27.5 C23.875,27.5 25,26.375 25,25 L25,12.5 C25,11.125 23.875,10 22.5,10 Z M11.125,7.5 C11.125,5.3625 12.8625,3.625 15,3.625 C17.1375,3.625 18.875,5.3625 18.875,7.5 L18.875,10 L11.125,10 L11.125,7.5 Z M22.5,25 L7.5,25 L7.5,12.5 L22.5,12.5 L22.5,25 Z" id="Shape" fill="#333333" fill-rule="nonzero" mask="url(#mask-2)"></path>
                    </g>
                </g>
            </g>
        </g>
    </g>
</svg>